<mxfile host="app.diagrams.net" modified="2022-07-01T11:04:05.602Z" agent="5.0 (Windows NT 10.0; Win64; x64) AppleWebKit/537.36 (KHTML, like Gecko) Chrome/103.0.0.0 Safari/537.36" etag="PqLRZbOoLKwEiC-jRmMv" version="20.0.4" type="github" pages="2">
  <diagram id="-HxDO2nya1G7kl7BVG3V" name="第 1 页">
    <mxGraphModel dx="1550" dy="779" grid="1" gridSize="10" guides="1" tooltips="1" connect="1" arrows="1" fold="1" page="1" pageScale="1" pageWidth="1500" pageHeight="2569" math="0" shadow="0">
      <root>
        <mxCell id="0" />
        <mxCell id="1" parent="0" />
        <mxCell id="bPWdtkpfDZCpALGGssGh-9" style="edgeStyle=orthogonalEdgeStyle;rounded=0;orthogonalLoop=1;jettySize=auto;html=1;exitX=0.5;exitY=1;exitDx=0;exitDy=0;" edge="1" parent="1" source="bPWdtkpfDZCpALGGssGh-1" target="bPWdtkpfDZCpALGGssGh-2">
          <mxGeometry relative="1" as="geometry">
            <Array as="points">
              <mxPoint x="490" y="100" />
              <mxPoint x="490" y="100" />
            </Array>
          </mxGeometry>
        </mxCell>
        <mxCell id="bPWdtkpfDZCpALGGssGh-1" value="测试人员登录普通权限账号A，获取cookie-a，添加至系统" style="rounded=0;whiteSpace=wrap;html=1;" vertex="1" parent="1">
          <mxGeometry x="430" y="30" width="120" height="60" as="geometry" />
        </mxCell>
        <mxCell id="bPWdtkpfDZCpALGGssGh-10" style="edgeStyle=orthogonalEdgeStyle;rounded=0;orthogonalLoop=1;jettySize=auto;html=1;exitX=0.5;exitY=1;exitDx=0;exitDy=0;entryX=0.5;entryY=0;entryDx=0;entryDy=0;" edge="1" parent="1" source="bPWdtkpfDZCpALGGssGh-2" target="bPWdtkpfDZCpALGGssGh-4">
          <mxGeometry relative="1" as="geometry">
            <Array as="points">
              <mxPoint x="485" y="210" />
            </Array>
          </mxGeometry>
        </mxCell>
        <mxCell id="bPWdtkpfDZCpALGGssGh-2" value="测试人员登录普通权限账号B，获取cookie-b，添加至系统" style="rounded=0;whiteSpace=wrap;html=1;" vertex="1" parent="1">
          <mxGeometry x="430" y="150" width="120" height="60" as="geometry" />
        </mxCell>
        <mxCell id="bPWdtkpfDZCpALGGssGh-17" value="" style="edgeStyle=orthogonalEdgeStyle;rounded=0;orthogonalLoop=1;jettySize=auto;html=1;" edge="1" parent="1" source="bPWdtkpfDZCpALGGssGh-4" target="bPWdtkpfDZCpALGGssGh-15">
          <mxGeometry relative="1" as="geometry">
            <Array as="points">
              <mxPoint x="490" y="340" />
              <mxPoint x="490" y="340" />
            </Array>
          </mxGeometry>
        </mxCell>
        <mxCell id="bPWdtkpfDZCpALGGssGh-19" style="edgeStyle=orthogonalEdgeStyle;rounded=0;orthogonalLoop=1;jettySize=auto;html=1;exitX=0.25;exitY=1;exitDx=0;exitDy=0;entryX=0.5;entryY=0;entryDx=0;entryDy=0;" edge="1" parent="1" source="bPWdtkpfDZCpALGGssGh-4" target="bPWdtkpfDZCpALGGssGh-11">
          <mxGeometry relative="1" as="geometry" />
        </mxCell>
        <mxCell id="bPWdtkpfDZCpALGGssGh-20" style="edgeStyle=orthogonalEdgeStyle;rounded=0;orthogonalLoop=1;jettySize=auto;html=1;exitX=0.75;exitY=1;exitDx=0;exitDy=0;entryX=0.5;entryY=0;entryDx=0;entryDy=0;" edge="1" parent="1" source="bPWdtkpfDZCpALGGssGh-4" target="bPWdtkpfDZCpALGGssGh-16">
          <mxGeometry relative="1" as="geometry">
            <mxPoint x="520" y="340" as="targetPoint" />
          </mxGeometry>
        </mxCell>
        <mxCell id="bPWdtkpfDZCpALGGssGh-22" style="edgeStyle=orthogonalEdgeStyle;rounded=0;orthogonalLoop=1;jettySize=auto;html=1;exitX=1;exitY=0.5;exitDx=0;exitDy=0;entryX=0;entryY=0.5;entryDx=0;entryDy=0;" edge="1" parent="1" source="bPWdtkpfDZCpALGGssGh-4" target="bPWdtkpfDZCpALGGssGh-21">
          <mxGeometry relative="1" as="geometry" />
        </mxCell>
        <mxCell id="bPWdtkpfDZCpALGGssGh-4" value="测试人员使用管理员账号admin登录，访问各功能点" style="rounded=0;whiteSpace=wrap;html=1;" vertex="1" parent="1">
          <mxGeometry x="430" y="260" width="110" height="60" as="geometry" />
        </mxCell>
        <mxCell id="bPWdtkpfDZCpALGGssGh-7" value="账号A、B为平级权限" style="text;html=1;strokeColor=none;fillColor=none;align=center;verticalAlign=middle;whiteSpace=wrap;rounded=0;" vertex="1" parent="1">
          <mxGeometry x="440" y="110" width="130" height="30" as="geometry" />
        </mxCell>
        <mxCell id="bPWdtkpfDZCpALGGssGh-47" style="edgeStyle=orthogonalEdgeStyle;rounded=0;orthogonalLoop=1;jettySize=auto;html=1;exitX=0.5;exitY=1;exitDx=0;exitDy=0;entryX=0.5;entryY=0;entryDx=0;entryDy=0;" edge="1" parent="1" source="bPWdtkpfDZCpALGGssGh-11" target="bPWdtkpfDZCpALGGssGh-46">
          <mxGeometry relative="1" as="geometry">
            <Array as="points">
              <mxPoint x="360" y="500" />
              <mxPoint x="410" y="500" />
            </Array>
          </mxGeometry>
        </mxCell>
        <mxCell id="bPWdtkpfDZCpALGGssGh-11" value="代理扫描使用cookie-a访问并记录响应" style="rounded=0;whiteSpace=wrap;html=1;" vertex="1" parent="1">
          <mxGeometry x="320" y="360" width="80" height="60" as="geometry" />
        </mxCell>
        <mxCell id="bPWdtkpfDZCpALGGssGh-48" style="edgeStyle=orthogonalEdgeStyle;rounded=0;orthogonalLoop=1;jettySize=auto;html=1;exitX=0.5;exitY=1;exitDx=0;exitDy=0;entryX=0.5;entryY=0;entryDx=0;entryDy=0;" edge="1" parent="1" source="bPWdtkpfDZCpALGGssGh-15" target="bPWdtkpfDZCpALGGssGh-46">
          <mxGeometry relative="1" as="geometry">
            <Array as="points">
              <mxPoint x="490" y="500" />
              <mxPoint x="410" y="500" />
            </Array>
          </mxGeometry>
        </mxCell>
        <mxCell id="bPWdtkpfDZCpALGGssGh-63" style="edgeStyle=orthogonalEdgeStyle;rounded=0;orthogonalLoop=1;jettySize=auto;html=1;exitX=0.5;exitY=1;exitDx=0;exitDy=0;entryX=0.5;entryY=0;entryDx=0;entryDy=0;" edge="1" parent="1" source="bPWdtkpfDZCpALGGssGh-15" target="bPWdtkpfDZCpALGGssGh-65">
          <mxGeometry relative="1" as="geometry">
            <mxPoint x="670" y="620" as="targetPoint" />
            <Array as="points">
              <mxPoint x="500" y="420" />
              <mxPoint x="500" y="460" />
              <mxPoint x="670" y="460" />
            </Array>
          </mxGeometry>
        </mxCell>
        <mxCell id="bPWdtkpfDZCpALGGssGh-15" value="代理扫描使用cookie-b访问并记录响应" style="rounded=0;whiteSpace=wrap;html=1;" vertex="1" parent="1">
          <mxGeometry x="450" y="360" width="80" height="60" as="geometry" />
        </mxCell>
        <mxCell id="bPWdtkpfDZCpALGGssGh-25" style="edgeStyle=orthogonalEdgeStyle;rounded=0;orthogonalLoop=1;jettySize=auto;html=1;exitX=1;exitY=0.5;exitDx=0;exitDy=0;entryX=0;entryY=0.5;entryDx=0;entryDy=0;" edge="1" parent="1" source="bPWdtkpfDZCpALGGssGh-16" target="bPWdtkpfDZCpALGGssGh-23">
          <mxGeometry relative="1" as="geometry">
            <mxPoint x="730" y="390" as="targetPoint" />
          </mxGeometry>
        </mxCell>
        <mxCell id="bPWdtkpfDZCpALGGssGh-16" value="代理扫描使用无cookie访问并记录响应" style="rounded=0;whiteSpace=wrap;html=1;" vertex="1" parent="1">
          <mxGeometry x="590" y="360" width="80" height="60" as="geometry" />
        </mxCell>
        <mxCell id="bPWdtkpfDZCpALGGssGh-24" style="edgeStyle=orthogonalEdgeStyle;rounded=0;orthogonalLoop=1;jettySize=auto;html=1;exitX=0.5;exitY=1;exitDx=0;exitDy=0;entryX=0.5;entryY=0;entryDx=0;entryDy=0;" edge="1" parent="1" source="bPWdtkpfDZCpALGGssGh-21" target="bPWdtkpfDZCpALGGssGh-23">
          <mxGeometry relative="1" as="geometry" />
        </mxCell>
        <mxCell id="bPWdtkpfDZCpALGGssGh-64" style="edgeStyle=orthogonalEdgeStyle;rounded=0;orthogonalLoop=1;jettySize=auto;html=1;exitX=0.25;exitY=1;exitDx=0;exitDy=0;" edge="1" parent="1" source="bPWdtkpfDZCpALGGssGh-21">
          <mxGeometry relative="1" as="geometry">
            <mxPoint x="670" y="570" as="targetPoint" />
            <Array as="points">
              <mxPoint x="760" y="320" />
              <mxPoint x="760" y="460" />
              <mxPoint x="670" y="460" />
            </Array>
          </mxGeometry>
        </mxCell>
        <mxCell id="bPWdtkpfDZCpALGGssGh-21" value="代理扫描记录admin响应结果" style="rounded=0;whiteSpace=wrap;html=1;" vertex="1" parent="1">
          <mxGeometry x="740" y="260" width="100" height="60" as="geometry" />
        </mxCell>
        <mxCell id="bPWdtkpfDZCpALGGssGh-28" style="edgeStyle=orthogonalEdgeStyle;rounded=0;orthogonalLoop=1;jettySize=auto;html=1;exitX=0.5;exitY=1;exitDx=0;exitDy=0;" edge="1" parent="1" source="bPWdtkpfDZCpALGGssGh-23">
          <mxGeometry relative="1" as="geometry">
            <mxPoint x="790" y="470" as="targetPoint" />
          </mxGeometry>
        </mxCell>
        <mxCell id="bPWdtkpfDZCpALGGssGh-29" style="edgeStyle=orthogonalEdgeStyle;rounded=0;orthogonalLoop=1;jettySize=auto;html=1;exitX=1;exitY=0.5;exitDx=0;exitDy=0;entryX=1.07;entryY=0.813;entryDx=0;entryDy=0;entryPerimeter=0;" edge="1" parent="1" source="bPWdtkpfDZCpALGGssGh-23" target="bPWdtkpfDZCpALGGssGh-30">
          <mxGeometry relative="1" as="geometry">
            <mxPoint x="930" y="390" as="targetPoint" />
          </mxGeometry>
        </mxCell>
        <mxCell id="bPWdtkpfDZCpALGGssGh-23" value="响应是否一致" style="rhombus;whiteSpace=wrap;html=1;" vertex="1" parent="1">
          <mxGeometry x="740" y="360" width="100" height="60" as="geometry" />
        </mxCell>
        <mxCell id="bPWdtkpfDZCpALGGssGh-58" style="edgeStyle=orthogonalEdgeStyle;rounded=0;orthogonalLoop=1;jettySize=auto;html=1;exitX=0;exitY=0.5;exitDx=0;exitDy=0;" edge="1" parent="1" source="bPWdtkpfDZCpALGGssGh-26">
          <mxGeometry relative="1" as="geometry">
            <mxPoint x="410" y="510" as="targetPoint" />
          </mxGeometry>
        </mxCell>
        <mxCell id="bPWdtkpfDZCpALGGssGh-26" value="进入越权检测逻辑" style="rounded=0;whiteSpace=wrap;html=1;" vertex="1" parent="1">
          <mxGeometry x="730" y="480" width="120" height="60" as="geometry" />
        </mxCell>
        <mxCell id="bPWdtkpfDZCpALGGssGh-34" style="edgeStyle=orthogonalEdgeStyle;rounded=0;orthogonalLoop=1;jettySize=auto;html=1;exitX=0.5;exitY=1;exitDx=0;exitDy=0;" edge="1" parent="1" source="bPWdtkpfDZCpALGGssGh-27">
          <mxGeometry relative="1" as="geometry">
            <mxPoint x="989" y="470" as="targetPoint" />
            <Array as="points">
              <mxPoint x="989" y="450" />
              <mxPoint x="989" y="450" />
            </Array>
          </mxGeometry>
        </mxCell>
        <mxCell id="bPWdtkpfDZCpALGGssGh-27" value="属于公共页面或未授权访问" style="rounded=0;whiteSpace=wrap;html=1;" vertex="1" parent="1">
          <mxGeometry x="910" y="360" width="150" height="60" as="geometry" />
        </mxCell>
        <mxCell id="bPWdtkpfDZCpALGGssGh-30" value="是" style="text;html=1;align=center;verticalAlign=middle;resizable=0;points=[];autosize=1;strokeColor=none;fillColor=none;" vertex="1" parent="1">
          <mxGeometry x="860" y="365" width="40" height="30" as="geometry" />
        </mxCell>
        <mxCell id="bPWdtkpfDZCpALGGssGh-31" value="否" style="text;html=1;align=center;verticalAlign=middle;resizable=0;points=[];autosize=1;strokeColor=none;fillColor=none;" vertex="1" parent="1">
          <mxGeometry x="780" y="425" width="40" height="30" as="geometry" />
        </mxCell>
        <mxCell id="bPWdtkpfDZCpALGGssGh-41" style="edgeStyle=orthogonalEdgeStyle;rounded=0;orthogonalLoop=1;jettySize=auto;html=1;exitX=1;exitY=0.5;exitDx=0;exitDy=0;" edge="1" parent="1" source="bPWdtkpfDZCpALGGssGh-35">
          <mxGeometry relative="1" as="geometry">
            <mxPoint x="1090" y="510" as="targetPoint" />
          </mxGeometry>
        </mxCell>
        <mxCell id="bPWdtkpfDZCpALGGssGh-44" style="edgeStyle=orthogonalEdgeStyle;rounded=0;orthogonalLoop=1;jettySize=auto;html=1;exitX=0.5;exitY=1;exitDx=0;exitDy=0;" edge="1" parent="1" source="bPWdtkpfDZCpALGGssGh-35">
          <mxGeometry relative="1" as="geometry">
            <mxPoint x="989" y="570" as="targetPoint" />
          </mxGeometry>
        </mxCell>
        <mxCell id="bPWdtkpfDZCpALGGssGh-35" value="人工查看是否存在敏感内容" style="rhombus;whiteSpace=wrap;html=1;" vertex="1" parent="1">
          <mxGeometry x="937.5" y="480" width="102.5" height="60" as="geometry" />
        </mxCell>
        <mxCell id="bPWdtkpfDZCpALGGssGh-37" value="判断为未授权访问漏洞" style="rounded=0;whiteSpace=wrap;html=1;" vertex="1" parent="1">
          <mxGeometry x="950" y="580" width="80" height="60" as="geometry" />
        </mxCell>
        <mxCell id="bPWdtkpfDZCpALGGssGh-39" value="是" style="text;html=1;align=center;verticalAlign=middle;resizable=0;points=[];autosize=1;strokeColor=none;fillColor=none;" vertex="1" parent="1">
          <mxGeometry x="980" y="535" width="40" height="30" as="geometry" />
        </mxCell>
        <mxCell id="bPWdtkpfDZCpALGGssGh-40" value="公共页面无漏洞" style="rounded=0;whiteSpace=wrap;html=1;" vertex="1" parent="1">
          <mxGeometry x="1100" y="480" width="120" height="60" as="geometry" />
        </mxCell>
        <mxCell id="bPWdtkpfDZCpALGGssGh-42" value="否" style="text;html=1;align=center;verticalAlign=middle;resizable=0;points=[];autosize=1;strokeColor=none;fillColor=none;" vertex="1" parent="1">
          <mxGeometry x="1040" y="485" width="40" height="30" as="geometry" />
        </mxCell>
        <mxCell id="bPWdtkpfDZCpALGGssGh-50" style="edgeStyle=orthogonalEdgeStyle;rounded=0;orthogonalLoop=1;jettySize=auto;html=1;exitX=0.5;exitY=1;exitDx=0;exitDy=0;entryX=0.5;entryY=0;entryDx=0;entryDy=0;" edge="1" parent="1" source="bPWdtkpfDZCpALGGssGh-46" target="bPWdtkpfDZCpALGGssGh-49">
          <mxGeometry relative="1" as="geometry" />
        </mxCell>
        <mxCell id="bPWdtkpfDZCpALGGssGh-51" value="" style="edgeStyle=orthogonalEdgeStyle;rounded=0;orthogonalLoop=1;jettySize=auto;html=1;" edge="1" parent="1" source="bPWdtkpfDZCpALGGssGh-46" target="bPWdtkpfDZCpALGGssGh-49">
          <mxGeometry relative="1" as="geometry" />
        </mxCell>
        <mxCell id="bPWdtkpfDZCpALGGssGh-54" style="edgeStyle=orthogonalEdgeStyle;rounded=0;orthogonalLoop=1;jettySize=auto;html=1;exitX=1;exitY=0.5;exitDx=0;exitDy=0;entryX=0;entryY=0.5;entryDx=0;entryDy=0;" edge="1" parent="1" source="bPWdtkpfDZCpALGGssGh-46" target="bPWdtkpfDZCpALGGssGh-68">
          <mxGeometry relative="1" as="geometry">
            <mxPoint x="590" y="840" as="targetPoint" />
            <Array as="points">
              <mxPoint x="500" y="596" />
              <mxPoint x="500" y="765" />
            </Array>
          </mxGeometry>
        </mxCell>
        <mxCell id="bPWdtkpfDZCpALGGssGh-46" value="响应一致" style="rhombus;whiteSpace=wrap;html=1;" vertex="1" parent="1">
          <mxGeometry x="370" y="563" width="80" height="65" as="geometry" />
        </mxCell>
        <mxCell id="bPWdtkpfDZCpALGGssGh-82" style="edgeStyle=orthogonalEdgeStyle;rounded=0;orthogonalLoop=1;jettySize=auto;html=1;exitX=1;exitY=0.5;exitDx=0;exitDy=0;entryX=0;entryY=0.5;entryDx=0;entryDy=0;" edge="1" parent="1" source="bPWdtkpfDZCpALGGssGh-49" target="bPWdtkpfDZCpALGGssGh-65">
          <mxGeometry relative="1" as="geometry" />
        </mxCell>
        <mxCell id="bPWdtkpfDZCpALGGssGh-49" value="无水平越权，进入垂直越权判断" style="rounded=0;whiteSpace=wrap;html=1;" vertex="1" parent="1">
          <mxGeometry x="350" y="680" width="120" height="60" as="geometry" />
        </mxCell>
        <mxCell id="bPWdtkpfDZCpALGGssGh-52" value="否" style="text;html=1;align=center;verticalAlign=middle;resizable=0;points=[];autosize=1;strokeColor=none;fillColor=none;" vertex="1" parent="1">
          <mxGeometry x="400" y="630" width="40" height="30" as="geometry" />
        </mxCell>
        <mxCell id="bPWdtkpfDZCpALGGssGh-61" value="是" style="text;html=1;align=center;verticalAlign=middle;resizable=0;points=[];autosize=1;strokeColor=none;fillColor=none;" vertex="1" parent="1">
          <mxGeometry x="450" y="575" width="40" height="30" as="geometry" />
        </mxCell>
        <mxCell id="bPWdtkpfDZCpALGGssGh-71" style="edgeStyle=orthogonalEdgeStyle;rounded=0;orthogonalLoop=1;jettySize=auto;html=1;exitX=1;exitY=0.5;exitDx=0;exitDy=0;entryX=0;entryY=0.5;entryDx=0;entryDy=0;" edge="1" parent="1" source="bPWdtkpfDZCpALGGssGh-65" target="bPWdtkpfDZCpALGGssGh-69">
          <mxGeometry relative="1" as="geometry" />
        </mxCell>
        <mxCell id="bPWdtkpfDZCpALGGssGh-81" style="edgeStyle=orthogonalEdgeStyle;rounded=0;orthogonalLoop=1;jettySize=auto;html=1;exitX=0.5;exitY=1;exitDx=0;exitDy=0;" edge="1" parent="1" source="bPWdtkpfDZCpALGGssGh-65" target="bPWdtkpfDZCpALGGssGh-68">
          <mxGeometry relative="1" as="geometry" />
        </mxCell>
        <mxCell id="bPWdtkpfDZCpALGGssGh-65" value="响应一致" style="rhombus;whiteSpace=wrap;html=1;" vertex="1" parent="1">
          <mxGeometry x="630" y="635" width="80" height="60" as="geometry" />
        </mxCell>
        <mxCell id="bPWdtkpfDZCpALGGssGh-68" value="可能为公共页面或水平、垂直越权" style="rounded=0;whiteSpace=wrap;html=1;" vertex="1" parent="1">
          <mxGeometry x="620" y="750" width="100" height="30" as="geometry" />
        </mxCell>
        <mxCell id="bPWdtkpfDZCpALGGssGh-69" value="无漏洞" style="rounded=0;whiteSpace=wrap;html=1;" vertex="1" parent="1">
          <mxGeometry x="765" y="647.5" width="50" height="35" as="geometry" />
        </mxCell>
        <mxCell id="bPWdtkpfDZCpALGGssGh-72" value="否" style="text;html=1;align=center;verticalAlign=middle;resizable=0;points=[];autosize=1;strokeColor=none;fillColor=none;" vertex="1" parent="1">
          <mxGeometry x="710" y="665" width="40" height="30" as="geometry" />
        </mxCell>
        <mxCell id="bPWdtkpfDZCpALGGssGh-73" value="是" style="text;html=1;align=center;verticalAlign=middle;resizable=0;points=[];autosize=1;strokeColor=none;fillColor=none;" vertex="1" parent="1">
          <mxGeometry x="670" y="700" width="40" height="30" as="geometry" />
        </mxCell>
        <mxCell id="bPWdtkpfDZCpALGGssGh-83" value="难点在于如何判断登录后的私有数据&lt;br&gt;垂直越权可使用爬虫结果对比，差异结果为垂直越权" style="rounded=0;whiteSpace=wrap;html=1;" vertex="1" parent="1">
          <mxGeometry x="600" y="810" width="160" height="60" as="geometry" />
        </mxCell>
      </root>
    </mxGraphModel>
  </diagram>
  <diagram id="8UH4JBeSMaR1mTk_JJO5" name="第 2 页">
    <mxGraphModel dx="1550" dy="835" grid="1" gridSize="10" guides="1" tooltips="1" connect="1" arrows="1" fold="1" page="1" pageScale="1" pageWidth="1127" pageHeight="2169" math="0" shadow="0">
      <root>
        <mxCell id="0" />
        <mxCell id="1" parent="0" />
      </root>
    </mxGraphModel>
  </diagram>
</mxfile>
